<?xml version="1.0" encoding="UTF-8"?>
<svg width="752pt" height="752pt" version="1.1" viewBox="0 0 752 752" xmlns="http://www.w3.org/2000/svg">
 <path d="m376 569.7c-8.9961 0-16.574-7.5781-16.574-16.574s7.5781-16.574 16.574-16.574c88.086 0 160.07-71.984 160.07-160.07 0-88.086-71.984-160.07-160.07-160.07-8.9961 0-16.574-7.5781-16.574-16.574 0-8.9961 7.5781-16.574 16.574-16.574 106.55 0 193.7 86.664 193.7 193.7 0 107.02-87.137 192.74-193.7 192.74zm-28.414-98.977 116.97-71.039c8.5234-5.2109 13.262-13.734 13.262-23.68s-5.2109-18.469-13.262-23.68l-116.97-71.035c-8.5234-5.2109-19.418-5.2109-27.941-0.47266-8.5234 4.7344-14.207 14.207-14.207 24.152v142.07c0 9.9453 5.2109 19.418 14.207 24.152 4.2617 2.3672 8.9961 3.7891 13.734 3.7891 4.7344 0 9.9453-1.4219 14.207-4.2617zm-17.047-28.414m108.92-66.305-100.87 61.094v-122.18zm-124.08 167.18c3.7891-8.5234 0.47266-18.469-8.0508-22.258-8.5234-3.7891-16.574-8.5234-24.152-14.207-7.5781-5.2109-17.996-3.3164-23.207 3.7891-5.2109 7.5781-3.3164 17.996 3.7891 23.207 8.9961 6.6289 18.941 12.312 28.887 17.051 2.3672 0.94531 4.7344 1.4219 7.1055 1.4219 6.6328 0.46875 12.789-3.3203 15.629-9.0039zm-74.824-52.566c7.5781-5.2109 9.4727-15.629 4.2617-23.207-5.2109-7.5781-9.9453-15.629-13.734-24.152-3.7891-8.5234-13.734-11.84-22.258-8.0508-8.5234 3.7891-11.84 13.734-8.0508 22.258 4.7344 9.9453 10.418 19.891 16.574 28.887 3.3164 4.7344 8.5234 7.1055 13.734 7.1055 3.3164 0.47266 6.6289-0.47266 9.4727-2.8398zm-39.309-82.406c8.9961-0.94531 16.102-8.9961 15.156-17.996-0.47266-4.7344-0.47266-9.4727-0.47266-14.207s0-8.9961 0.47266-13.734c0.94531-8.9961-6.1562-17.051-15.156-17.996-8.9961-0.94531-17.051 6.1562-17.996 15.156-0.47266 5.6836-0.47266 10.891-0.47266 16.574s0.47266 11.367 0.94531 17.051c0.94531 8.5234 8.0508 15.156 16.574 15.156 0.003907-0.003906 0.47656-0.003906 0.94922-0.003906zm29.363-99.449c3.7891-8.5234 8.5234-16.574 13.734-24.152 5.2109-7.5781 3.3164-17.996-4.2617-23.207-7.5781-5.2109-17.996-3.3164-23.207 4.2617-6.1562 8.9961-11.84 18.941-16.574 28.887-3.7891 8.5234 0 18.469 8.0508 22.258 2.3672 0.94531 4.7344 1.4219 7.1055 1.4219 6.1523 0.47656 12.309-3.3125 15.152-9.4688zm52.566-63.461c7.5781-5.2109 15.629-9.9453 23.68-14.207 8.5234-3.7891 11.84-13.734 8.0508-22.258-3.7891-8.5234-13.734-11.84-22.258-8.0508-9.9453 4.7344-19.891 10.418-28.887 17.051-7.5781 5.2109-9.4727 15.629-3.7891 23.207 3.3164 4.7344 8.5234 7.1055 13.734 7.1055 3.3125 0.46875 6.6289-0.48047 9.4688-2.8477z"/>
</svg>
